<svg xmlns="http://www.w3.org/2000/svg" xmlns:xlink="http://www.w3.org/1999/xlink" width="257" height="81" viewBox="0 0 257 81">
    <defs>
        <path id="prefix__a" d="M0.464 0.896L11.875 0.896 11.875 15.882 0.464 15.882z"/>
        <path id="prefix__c" d="M0 69L222.875 69 222.875 0.819 0 0.819z"/>
    </defs>
    <g fill="none" fill-rule="evenodd">
        <path fill="#FF5100" d="M84.81 34.46l-2.59 6.08h5.16l-2.57-6.08zm3.833 9.034h-7.686l-1.091 2.57h-3.597l6.723-14.987h3.639l6.722 14.987h-3.618l-1.092-2.57z" transform="translate(17 5)"/>
        <g transform="translate(17 5) translate(0 .181)">
            <path fill="#FF5100" d="M105.513 34.514c-.399-.414-.917-.728-1.552-.942-.635-.214-1.274-.321-1.916-.321-.757 0-1.39.15-1.906.45-.513.299-.77.699-.77 1.198 0 .628.26 1.059.781 1.296.521.235 1.338.402 2.451.503 3.84.328 5.76 1.948 5.76 4.86 0 1.056-.307 1.958-.92 2.707-.615.75-1.386 1.285-2.313 1.605-.928.323-1.955.49-3.083.504-1.37.014-2.655-.242-3.853-.771-1.2-.527-2.098-1.3-2.698-2.312l1.991-2.077c.542.699 1.235 1.229 2.077 1.584.842.358 1.677.536 2.504.536.885 0 1.606-.165 2.162-.493.557-.328.835-.756.835-1.283.015-.614-.224-1.082-.717-1.402-.492-.323-1.259-.526-2.3-.612-.9-.085-1.667-.207-2.303-.363-.634-.157-1.252-.4-1.85-.73-.6-.327-1.054-.787-1.36-1.38-.308-.591-.454-1.308-.439-2.15.014-1.428.595-2.544 1.744-3.351 1.15-.806 2.544-1.21 4.186-1.21 1.227 0 2.28.172 3.157.515.878.342 1.688.942 2.43 1.798l-2.098 1.84zM120.798 34.514c-.398-.414-.916-.728-1.552-.942-.635-.214-1.273-.321-1.916-.321-.757 0-1.39.15-1.905.45-.514.299-.77.699-.77 1.198 0 .628.26 1.059.781 1.296.52.235 1.34.402 2.451.503 3.84.328 5.76 1.948 5.76 4.86 0 1.056-.308 1.958-.92 2.707-.616.75-1.386 1.285-2.314 1.605-.927.323-1.955.49-3.083.504-1.37.014-2.654-.242-3.853-.771-1.199-.527-2.098-1.3-2.698-2.312l1.992-2.077c.542.699 1.234 1.229 2.076 1.584.842.358 1.678.536 2.505.536.885 0 1.606-.165 2.163-.493.555-.328.834-.756.834-1.283.014-.614-.225-1.082-.717-1.402-.492-.323-1.26-.526-2.302-.612-.899-.085-1.666-.207-2.302-.363-.634-.157-1.25-.4-1.85-.73-.6-.327-1.053-.787-1.36-1.38-.307-.591-.453-1.308-.439-2.15.014-1.428.596-2.544 1.745-3.351 1.15-.806 2.543-1.21 4.186-1.21 1.226 0 2.28.172 3.157.515.878.342 1.687.942 2.43 1.798l-2.099 1.84zM139.81 30.917v8.371c0 2.184-.567 3.871-1.702 5.063-1.135 1.191-2.708 1.823-4.72 1.894-2.084.072-3.811-.492-5.182-1.69-1.37-1.2-2.054-2.955-2.054-5.267v-8.37h3.318v8.37c0 1.326.35 2.333 1.049 3.018.699.685 1.662 1 2.89.942 2.055-.143 3.083-1.463 3.083-3.96v-8.37h3.318zM146.702 33.764v4.368h3.813c.713 0 1.258-.215 1.637-.643.378-.428.568-.913.568-1.455-.016-.586-.214-1.11-.6-1.574-.387-.464-.935-.696-1.649-.696h-3.769zm9.956 12.118h-3.703l-3.833-4.924h-2.42v4.924h-3.339V30.895h7.108c1.727 0 3.083.493 4.067 1.478.984.984 1.477 2.176 1.477 3.575-.013 1.113-.263 2.06-.748 2.836-.487.778-1.392 1.402-2.719 1.873l4.11 4.967v.258zM166.955 34.279l-2.59 6.08h5.16l-2.57-6.08zm3.832 9.034h-7.686l-1.09 2.57h-3.598l6.723-14.987h3.638l6.723 14.987h-3.618l-1.092-2.57zM188.365 40.636L188.15 35.927 188.15 30.896 191.511 30.896 191.511 45.882 188.643 45.882 181.193 36.29 181.322 41.214 181.322 45.882 177.939 45.882 177.939 30.896 180.808 30.896zM208.189 44.062c-1.484 1.47-3.404 2.205-5.76 2.205-1.384 0-2.6-.211-3.65-.631-1.048-.422-1.883-1-2.504-1.734-.621-.736-1.084-1.557-1.391-2.463-.307-.906-.461-1.887-.461-2.943 0-.998.16-1.96.483-2.88.32-.92.799-1.765 1.433-2.536.635-.771 1.477-1.385 2.527-1.841 1.049-.457 2.237-.685 3.564-.685 2.098 0 3.932.77 5.5 2.312l-2.096 2.076c-.842-.827-1.977-1.241-3.404-1.241-.813 0-1.534.146-2.163.439-.627.292-1.123.677-1.487 1.155-.364.478-.632.993-.803 1.542-.171.549-.257 1.11-.257 1.68 0 .586.086 1.139.257 1.66.17.52.432 1.013.78 1.477.352.464.84.835 1.468 1.113s1.362.418 2.205.418c.628 0 1.292-.133 1.99-.396.7-.264 1.264-.611 1.693-1.04l2.076 2.313z"/>
            <g transform="translate(211 30)">
                <mask id="prefix__b" fill="#fff">
                    <use xlink:href="#prefix__a"/>
                </mask>
                <path fill="#FF5100" d="M11.875 15.882L0.464 15.882 0.464 0.896 11.575 0.896 11.575 3.957 3.739 3.957 3.739 6.847 11.126 6.847 11.126 9.78 3.739 9.78 3.739 12.798 11.875 12.798z" mask="url(#prefix__b)"/>
            </g>
            <path fill="#FF5100" d="M91.38 10.132v8.371c0 2.183-.567 3.871-1.702 5.063-1.135 1.191-2.708 1.823-4.72 1.894-2.084.072-3.81-.492-5.182-1.69-1.37-1.2-2.055-2.955-2.055-5.267v-8.37h3.32v8.37c0 1.327.348 2.333 1.047 3.018.7.685 1.664 1 2.891.942 2.055-.143 3.083-1.463 3.083-3.96v-8.37h3.318zM106.216 19.851L106.002 15.142 106.002 10.11 109.363 10.11 109.363 25.096 106.494 25.096 99.044 15.505 99.173 20.429 99.173 25.096 95.79 25.096 95.79 10.11 98.659 10.11z"/>
            <mask id="prefix__d" fill="#fff">
                <use xlink:href="#prefix__c"/>
            </mask>
            <path fill="#FF5100" d="M113.988 25.097L117.306 25.097 117.306 10.111 113.988 10.111zM132.217 14.125c-.892-.92-2.052-1.381-3.479-1.381-1.413 0-2.569.464-3.468 1.392-.9.927-1.349 2.083-1.349 3.468 0 1.413.45 2.572 1.35 3.479.898.906 2.054 1.359 3.467 1.359 1.441 0 2.605-.453 3.49-1.36.885-.906 1.327-2.065 1.327-3.478 0-1.4-.446-2.56-1.338-3.48m2.387 9.217c-1.485 1.413-3.44 2.119-5.866 2.119-2.426 0-4.38-.706-5.866-2.12-1.484-1.412-2.226-3.324-2.226-5.736s.742-4.325 2.226-5.737c1.485-1.413 3.44-2.12 5.866-2.12 2.426 0 4.381.707 5.866 2.12 1.484 1.412 2.226 3.325 2.226 5.737s-.742 4.324-2.226 5.737M150.167 19.851L149.953 15.142 149.953 10.11 153.314 10.11 153.314 25.096 150.446 25.096 142.995 15.505 143.124 20.429 143.124 25.096 139.741 25.096 139.741 10.11 142.61 10.11zM80.329 54.282l-1.245 2.92h2.478l-1.233-2.92zm1.84 4.34h-3.692l-.525 1.233h-1.727l3.229-7.198h1.749l3.23 7.199h-1.74l-.523-1.233zM89.216 56.862c.048 1.084.593 1.625 1.635 1.625.528 0 .94-.15 1.234-.452.295-.301.443-.726.443-1.275v-2.643h-1.996v-1.46h3.6v4.114c0 .966-.285 1.748-.854 2.343-.569.599-1.37.896-2.406.896-2.119 0-3.189-1.048-3.209-3.148h1.553zM100.998 54.585c-.429-.442-.986-.664-1.67-.664-.68 0-1.236.223-1.667.67-.433.445-.648 1-.648 1.665 0 .68.215 1.235.648 1.671.431.435.987.653 1.666.653.692 0 1.251-.218 1.676-.653.425-.436.638-.992.638-1.67 0-.673-.215-1.23-.643-1.672m1.146 4.428c-.712.677-1.652 1.017-2.817 1.017-1.166 0-2.105-.34-2.818-1.017-.713-.68-1.07-1.598-1.07-2.757s.357-2.077 1.07-2.757c.713-.678 1.652-1.018 2.818-1.018 1.165 0 2.105.34 2.817 1.018.713.68 1.07 1.598 1.07 2.757 0 1.16-.357 2.077-1.07 2.757M109.438 59.867L109.438 57.017 106.219 57.017 106.219 59.867 104.615 59.867 104.615 52.667 106.219 52.667 106.219 55.547 109.438 55.547 109.438 52.667 111.022 52.667 111.022 59.867zM117.841 57.336L117.739 55.073 117.739 52.656 119.353 52.656 119.353 59.856 117.976 59.856 114.396 55.248 114.458 57.613 114.458 59.856 112.833 59.856 112.833 52.656 114.211 52.656zM129.753 52.699L126.832 56.154 130.011 59.763 130.011 59.855 128.077 59.855 125.413 56.781 125.413 59.855 123.809 59.855 123.809 52.657 125.413 52.657 125.413 55.629 127.81 52.657 129.753 52.657zM136.419 59.856L130.937 59.856 130.937 52.657 136.274 52.657 136.274 54.127 132.511 54.127 132.511 55.516 136.059 55.516 136.059 56.925 132.511 56.925 132.511 58.375 136.419 58.375zM143.372 59.856L137.891 59.856 137.891 52.657 143.227 52.657 143.227 54.127 139.464 54.127 139.464 55.516 143.013 55.516 143.013 56.925 139.464 56.925 139.464 58.375 143.372 58.375zM146.449 52.657L146.449 58.386 150.049 58.386 150.049 59.855 144.845 59.855 144.845 52.657zM152.826 52.657L152.826 58.386 156.426 58.386 156.426 59.855 151.222 59.855 151.222 52.657zM161.857 54.395c-.191-.198-.44-.35-.746-.452-.305-.104-.611-.154-.92-.154-.363 0-.668.072-.916.214-.246.145-.37.336-.37.577 0 .302.126.509.376.623.25.113.642.193 1.178.24 1.843.158 2.765.937 2.765 2.336 0 .507-.146.94-.441 1.3-.295.36-.666.618-1.112.772-.445.154-.94.234-1.48.24-.658.008-1.275-.115-1.852-.37-.576-.253-1.007-.623-1.294-1.11l.955-.997c.26.336.593.59.998.76.404.172.805.258 1.203.258.426 0 .77-.08 1.039-.236.267-.158.4-.363.4-.617.008-.295-.107-.52-.344-.674-.236-.154-.605-.252-1.105-.293-.432-.041-.801-.1-1.105-.176-.305-.074-.602-.191-.891-.35-.287-.157-.505-.378-.652-.662-.148-.285-.218-.63-.211-1.034.006-.685.287-1.221.837-1.61.553-.387 1.223-.58 2.012-.58.589 0 1.095.082 1.516.246.422.165.81.453 1.168.864l-1.008.885zM173.377 58.982c-.714.706-1.636 1.059-2.767 1.059-.665 0-1.25-.101-1.754-.303-.503-.202-.904-.481-1.203-.833-.298-.353-.52-.747-.668-1.183-.148-.435-.22-.906-.22-1.414 0-.48.076-.941.23-1.383.154-.443.385-.85.69-1.218.304-.371.71-.666 1.213-.885.503-.22 1.075-.33 1.712-.33 1.008 0 1.89.37 2.643 1.11l-1.008.999c-.404-.398-.949-.598-1.635-.598-.39 0-.737.07-1.039.21-.3.142-.539.328-.715.558-.173.229-.302.477-.384.74-.083.264-.124.533-.124.807 0 .28.041.547.124.797.082.25.207.487.375.71.168.223.402.4.704.534.302.135.655.2 1.06.2.301 0 .62-.062.956-.19.336-.125.606-.292.813-.498l.997 1.11zM179.494 54.585c-.43-.442-.987-.664-1.673-.664-.678 0-1.233.223-1.666.67-.431.445-.648 1-.648 1.665 0 .68.216 1.235.648 1.671.433.435.988.653 1.666.653.694 0 1.252-.218 1.677-.653.425-.436.639-.992.639-1.67 0-.673-.215-1.23-.643-1.672m1.145 4.428c-.712.677-1.651 1.017-2.818 1.017-1.166 0-2.105-.34-2.817-1.017-.713-.68-1.07-1.598-1.07-2.757s.357-2.077 1.07-2.757c.713-.678 1.651-1.018 2.817-1.018 1.167 0 2.107.34 2.819 1.018.713.68 1.07 1.598 1.07 2.757 0 1.16-.358 2.077-1.07 2.757M189.167 54.858L186.944 57.656 186.657 57.656 184.508 54.837 184.508 59.867 182.903 59.867 182.903 52.668 184.744 52.668 186.843 55.433 188.95 52.668 190.771 52.668 190.771 59.867 189.167 59.867zM194.187 56.349h1.789c.37 0 .655-.104.855-.31.198-.204.297-.461.297-.77 0-.31-.101-.567-.302-.776-.203-.21-.486-.314-.85-.314h-1.79v2.17zm0 1.47v2.037h-1.604v-7.2h3.393c.879 0 1.557.248 2.037.742.48.493.72 1.106.72 1.84 0 .755-.238 1.37-.715 1.85-.476.482-1.157.725-2.042.732h-1.79zM202.694 54.282l-1.245 2.92h2.478l-1.233-2.92zm1.84 4.34h-3.692l-.524 1.233h-1.728l3.23-7.198h1.748l3.23 7.199h-1.74l-.523-1.233zM212.774 57.336L212.671 55.073 212.671 52.656 214.287 52.656 214.287 59.856 212.908 59.856 209.329 55.248 209.39 57.613 209.39 59.856 207.765 59.856 207.765 52.656 209.144 52.656zM218.915 55.516L220.735 52.657 222.576 52.657 222.576 52.74 219.696 56.997 219.696 59.856 218.093 59.856 218.093 56.997 215.336 52.74 215.336 52.657 217.186 52.657zM33.984 60.318c-13.293 0-24.216-10.266-25.302-23.283H0C1.107 54.84 15.903 69 33.984 69c18.08 0 32.876-14.16 33.982-31.966h-8.682c-1.086 13.017-12.008 23.283-25.3 23.283M33.984 9.5c13.292 0 24.214 10.267 25.3 23.283h8.682C66.86 14.978 52.063.819 33.984.819 15.903.819 1.107 14.978 0 32.783h8.682C9.769 19.767 20.69 9.5 33.984 9.5" mask="url(#prefix__d)"/>
        </g>
    </g>
</svg>